<svg height="100%" width="100%" id="svg" viewBox="0 0 1440 1440" xmlns="http://www.w3.org/2000/svg" class="transition duration-300 ease-in-out delay-150"><defs><linearGradient id="gradient"><stop offset="5%" stop-color="#f78da744"></stop><stop offset="95%" stop-color="#eb144c44"></stop></linearGradient></defs><path d="M 0,700 C 0,700 0,140 0,140 C 36.38316401608587,139.79445706625773 72.76632803217174,139.58891413251547 115,136 C 157.23367196782826,132.41108586748453 205.3178518873989,125.43880053619586 250,128 C 294.6821481126011,130.56119946380414 335.9622644182328,142.65588372270105 387,143 C 438.0377355817672,143.34411627729895 498.83309043967006,131.937664573 539,124 C 579.1669095603299,116.062335427 598.7053738230873,111.5934579852989 643,114 C 687.2946261769127,116.4065420147011 756.3454142679811,125.68850348580445 800,123 C 843.6545857320189,120.31149651419555 861.9129691049883,105.65252807148333 901,102 C 940.0870308950117,98.34747192851667 1000.002709312065,105.70138422826221 1050,124 C 1099.997290687935,142.2986157717378 1140.0761936467518,171.54193501546783 1178,168 C 1215.9238063532482,164.45806498453217 1251.692516100928,128.13087570986633 1295,118 C 1338.307483899072,107.86912429013367 1389.153741949536,123.93456214506683 1440,140 C 1440,140 1440,700 1440,700 Z" stroke="none" stroke-width="0" fill="url(#gradient)" class="transition-all duration-300 ease-in-out delay-150"></path><defs><linearGradient id="gradient"><stop offset="5%" stop-color="#f78da766"></stop><stop offset="95%" stop-color="#eb144c66"></stop></linearGradient></defs><path d="M 0,700 C 0,700 0,280 0,280 C 51.81257227045663,294.10534088635234 103.62514454091325,308.2106817727046 149,292 C 194.37485545908675,275.7893182272954 233.31199410680358,229.2626137955337 266,234 C 298.6880058931964,238.7373862044663 325.12687903187253,294.7388630451605 371,309 C 416.87312096812747,323.2611369548395 482.1804897657065,295.7819340238243 526,289 C 569.8195102342935,282.2180659761757 592.1511619053016,296.1334008595425 638,299 C 683.8488380946984,301.8665991404575 753.2148626130871,293.6844625380057 807,297 C 860.7851373869129,300.3155374619943 898.9893876423497,315.1287489884349 929,306 C 959.0106123576503,296.8712510115651 980.8275868175144,263.8005415082546 1028,259 C 1075.1724131824856,254.19945849174542 1147.7002650875925,277.66908497854683 1199,292 C 1250.2997349124075,306.33091502145317 1280.3713528321164,311.523118577558 1317,308 C 1353.6286471678836,304.476881422442 1396.8143235839418,292.23844071122096 1440,280 C 1440,280 1440,700 1440,700 Z" stroke="none" stroke-width="0" fill="url(#gradient)" class="transition-all duration-300 ease-in-out delay-150"></path><defs><linearGradient id="gradient"><stop offset="5%" stop-color="#f78da788"></stop><stop offset="95%" stop-color="#eb144c88"></stop></linearGradient></defs><path d="M 0,700 C 0,700 0,420 0,420 C 56.87721858127671,422.8768892139276 113.75443716255342,425.75377842785525 152,435 C 190.24556283744658,444.24622157214475 209.85946993106302,459.8617755025066 242,452 C 274.140530068937,444.1382244974934 318.80768311319434,412.7991195621185 369,405 C 419.19231688680566,397.2008804378815 474.9097976161595,412.9417462490194 527,410 C 579.0902023838405,407.0582537509806 627.5531264221676,385.4338954418038 669,405 C 710.4468735778324,424.5661045581962 744.8776966951705,485.3226719837654 777,472 C 809.1223033048295,458.6773280162346 838.9360867971506,371.2754166231347 892,368 C 945.0639132028494,364.7245833768653 1021.3779561162276,445.5756615236959 1070,463 C 1118.6220438837724,480.4243384763041 1139.552088737939,434.4219372820819 1174,413 C 1208.447911262061,391.5780627179181 1256.4136889320173,394.7365893479766 1303,400 C 1349.5863110679827,405.2634106520234 1394.7931555339915,412.6317053260117 1440,420 C 1440,420 1440,700 1440,700 Z" stroke="none" stroke-width="0" fill="url(#gradient)" class="transition-all duration-300 ease-in-out delay-150"></path><defs><linearGradient id="gradient"><stop offset="5%" stop-color="#f78da7ff"></stop><stop offset="95%" stop-color="#eb144cff"></stop></linearGradient></defs><path d="M 0,700 C 0,700 0,560 0,560 C 53.685525013325204,567.334058177607 107.37105002665041,574.6681163552138 144,585 C 180.6289499733496,595.3318836447862 200.20132490672353,608.6615927567517 240,588 C 279.7986750932765,567.3384072432483 339.82365034645545,512.6855126177798 395,513 C 450.17634965354455,513.3144873822202 500.5040737074545,568.5963567721292 540,583 C 579.4959262925455,597.4036432278708 608.1600548237265,570.9290602937036 653,562 C 697.8399451762735,553.0709397062964 758.8557069976395,561.6874020530565 805,555 C 851.1442930023605,548.3125979469435 882.4171171857155,526.3213314940705 924,524 C 965.5828828142845,521.6786685059295 1017.4758242594987,539.0272719706616 1060,537 C 1102.5241757405013,534.9727280293384 1135.6795857762886,513.5695806232834 1173,507 C 1210.3204142237114,500.43041937671654 1251.8058326353462,508.6944055362047 1297,520 C 1342.1941673646538,531.3055944637953 1391.097083682327,545.6527972318977 1440,560 C 1440,560 1440,700 1440,700 Z" stroke="none" stroke-width="0" fill="url(#gradient)" class="transition-all duration-300 ease-in-out delay-150"></path></svg>